<mxfile host="65bd71144e">
    <diagram id="-Y0Arp-4VtB39YFQDtdc" name="Page-1">
        <mxGraphModel dx="1014" dy="787" grid="1" gridSize="10" guides="1" tooltips="1" connect="1" arrows="1" fold="1" page="1" pageScale="1" pageWidth="850" pageHeight="1100" math="0" shadow="0">
            <root>
                <mxCell id="0"/>
                <mxCell id="1" parent="0"/>
                <mxCell id="2" value="CORE&lt;div&gt;(Controlling and Processing)&lt;/div&gt;" style="rounded=0;whiteSpace=wrap;html=1;" parent="1" vertex="1">
                    <mxGeometry x="200" y="230" width="500" height="120" as="geometry"/>
                </mxCell>
                <mxCell id="8" value="DIO" style="rounded=0;whiteSpace=wrap;html=1;" parent="1" vertex="1">
                    <mxGeometry x="200" y="400" width="110" height="80" as="geometry"/>
                </mxCell>
                <mxCell id="9" value="Comm" style="rounded=0;whiteSpace=wrap;html=1;" parent="1" vertex="1">
                    <mxGeometry x="460" y="400" width="110" height="80" as="geometry"/>
                </mxCell>
                <mxCell id="10" value="Display" style="rounded=0;whiteSpace=wrap;html=1;" parent="1" vertex="1">
                    <mxGeometry x="330" y="400" width="110" height="80" as="geometry"/>
                </mxCell>
                <mxCell id="11" value="Storage" style="rounded=0;whiteSpace=wrap;html=1;" parent="1" vertex="1">
                    <mxGeometry x="590" y="400" width="110" height="80" as="geometry"/>
                </mxCell>
                <mxCell id="12" value="Interface Input" style="rounded=0;whiteSpace=wrap;html=1;" parent="1" vertex="1">
                    <mxGeometry x="200" y="360" width="240" height="30" as="geometry"/>
                </mxCell>
                <mxCell id="13" value="Interface Output" style="rounded=0;whiteSpace=wrap;html=1;" parent="1" vertex="1">
                    <mxGeometry x="460" y="360" width="240" height="30" as="geometry"/>
                </mxCell>
                <mxCell id="14" value="HAL library" style="rounded=0;whiteSpace=wrap;html=1;" parent="1" vertex="1">
                    <mxGeometry x="200" y="490" width="500" height="60" as="geometry"/>
                </mxCell>
                <mxCell id="15" value="Navigation buttons" style="rounded=1;whiteSpace=wrap;html=1;align=left;" parent="1" vertex="1">
                    <mxGeometry x="200" y="620" width="360" height="20" as="geometry"/>
                </mxCell>
                <mxCell id="19" value="" style="edgeStyle=none;html=1;" parent="1" source="16" target="18" edge="1">
                    <mxGeometry relative="1" as="geometry"/>
                </mxCell>
                <mxCell id="16" value="Shortcuts &amp;amp; Combined Keys" style="rounded=1;whiteSpace=wrap;html=1;align=left;" parent="1" vertex="1">
                    <mxGeometry x="200" y="640" width="360" height="20" as="geometry"/>
                </mxCell>
                <mxCell id="17" value="Menu" style="rounded=1;whiteSpace=wrap;html=1;align=left;" parent="1" vertex="1">
                    <mxGeometry x="200" y="660" width="360" height="20" as="geometry"/>
                </mxCell>
                <mxCell id="18" value="Parameter (read/save/change/compare/import/export/reset)" style="rounded=1;whiteSpace=wrap;html=1;align=left;" parent="1" vertex="1">
                    <mxGeometry x="200" y="680" width="360" height="20" as="geometry"/>
                </mxCell>
                <mxCell id="20" value="Debug" style="rounded=1;whiteSpace=wrap;html=1;align=left;" parent="1" vertex="1">
                    <mxGeometry x="200" y="700" width="360" height="20" as="geometry"/>
                </mxCell>
                <mxCell id="21" value="Faults" style="rounded=1;whiteSpace=wrap;html=1;align=left;" parent="1" vertex="1">
                    <mxGeometry x="200" y="720" width="360" height="20" as="geometry"/>
                </mxCell>
                <mxCell id="22" value="Examples:" style="whiteSpace=wrap;html=1;fillColor=#ffff88;strokeColor=none;" vertex="1" parent="1">
                    <mxGeometry x="200" y="580" width="100" height="40" as="geometry"/>
                </mxCell>
            </root>
        </mxGraphModel>
    </diagram>
</mxfile>